D:\school\WTK\thesis\model\3dpredictsim\Results\batch_windlass\Pog_s1_tmt_aCst_d05_k800_WL30_ig24_pas_GRF.mot
nRows=25
nColumns=19

name D:\school\WTK\thesis\model\3dpredictsim\Results\batch_windlass\Pog_s1_tmt_aCst_d05_k800_WL30_ig24_pas_GRF.mot
datacolumns 19
datarows 25
range 0.5442218765 0.8054483773
endheader
time 	ground_force_vx	ground_force_vy	ground_force_vz	ground_force_px	ground_force_py	ground_force_pz	1_ground_force_vx	1_ground_force_vy	1_ground_force_vz	1_ground_force_px	1_ground_force_py	1_ground_force_pz	ground_torque_x	ground_torque_y	ground_torque_z	1_ground_torque_x	1_ground_torque_y	1_ground_torque_z
        0.5442218765	       86.4643229673	      426.0049243604	        0.5692592178	        0.3507887401	        0.0000000000	        0.0332086281	      -79.2531583512	       56.3156910648	      -18.4551508294	        0.8161316015	        0.0000000000	       -0.0446210965	        0.0000000000	        0.0000000000	        0.0000000000	        0.0000000000	        0.0000000000	        0.0000000000	
        0.5551063141	       60.1864806406	      329.8627549026	        7.5784774661	        0.3571123850	        0.0000000000	        0.0305953401	     -133.1957326912	      117.5375530040	      -39.5810313200	        0.8281504701	        0.0000000000	       -0.0426203058	        0.0000000000	        0.0000000000	        0.0000000000	        0.0000000000	        0.0000000000	        0.0000000000	
        0.5659907516	       30.8117801954	      230.2964530336	       14.7081854756	        0.3674124026	        0.0000000000	        0.0256861358	     -118.4334562733	      249.6764644966	      -55.6227750444	        0.8399894180	        0.0000000000	       -0.0425366776	        0.0000000000	        0.0000000000	        0.0000000000	        0.0000000000	        0.0000000000	        0.0000000000	
        0.5768751891	       10.9989044207	      161.2787918547	       16.3278254173	        0.3789565547	        0.0000000000	        0.0190863706	      -72.7839470069	      522.4744670928	       -6.3231910337	        0.8515534880	        0.0000000000	       -0.0440712706	        0.0000000000	        0.0000000000	        0.0000000000	        0.0000000000	        0.0000000000	        0.0000000000	
        0.5877596267	        1.3815881816	      129.4838423676	       13.1901193078	        0.3784100769	        0.0000000000	        0.0191510848	      -84.0839744942	      753.7604001761	       12.7659144443	        0.8582910860	        0.0000000000	       -0.0453523404	        0.0000000000	        0.0000000000	        0.0000000000	        0.0000000000	        0.0000000000	        0.0000000000	
        0.5986440642	       -4.6175594826	       86.8293734269	       10.0553566150	        0.3785263737	        0.0000000000	        0.0190233425	     -109.0527584878	      885.2426994552	       19.1159142064	        0.8648026786	        0.0000000000	       -0.0458497014	        0.0000000000	        0.0000000000	        0.0000000000	        0.0000000000	        0.0000000000	        0.0000000000	
        0.6095285017	      -12.3791242749	       35.6255560954	        5.3909581435	        0.3774202359	        0.0000000000	        0.0189476767	     -128.1668695625	      948.9626587963	       18.0925996005	        0.8719305216	        0.0000000000	       -0.0456711573	        0.0000000000	        0.0000000000	        0.0000000000	        0.0000000000	        0.0000000000	        0.0000000000	
        0.6204129392	        0.1268099308	       -0.1273770763	       -0.0028564807	        0.0000000000	        0.0000000000	        0.0000000000	     -125.4395312821	      950.6113353620	       16.9921948081	        0.8787449764	        0.0000000000	       -0.0450696552	        0.0000000000	        0.0000000000	        0.0000000000	        0.0000000000	        0.0000000000	        0.0000000000	
        0.6312973768	        0.0002802474	       -0.0002344727	        0.0000108685	        0.0000000000	        0.0000000000	        0.0000000000	     -109.3505355157	      895.7717825573	       16.0037834353	        0.8829522086	        0.0000000000	       -0.0445870501	        0.0000000000	        0.0000000000	        0.0000000000	        0.0000000000	        0.0000000000	        0.0000000000	
        0.6421818143	        0.0000626924	       -0.0000457414	        0.0000034621	        0.0000000000	        0.0000000000	        0.0000000000	      -91.5653899588	      826.5957628389	       16.1209674870	        0.8862817128	        0.0000000000	       -0.0442648814	        0.0000000000	        0.0000000000	        0.0000000000	        0.0000000000	        0.0000000000	        0.0000000000	
        0.6530662518	        0.0002325023	       -0.0001524790	        0.0000149526	        0.0000000000	        0.0000000000	        0.0000000000	      -76.9625588230	      765.9188874117	       16.2190732564	        0.8893815976	        0.0000000000	       -0.0440706516	        0.0000000000	        0.0000000000	        0.0000000000	        0.0000000000	        0.0000000000	        0.0000000000	
        0.6639506894	        0.0045680227	       -0.0027516206	        0.0003226907	        0.0000000000	        0.0000000000	        0.0000000000	      -64.3417184536	      718.0901276260	       16.5793329668	        0.8924400044	        0.0000000000	       -0.0439676003	        0.0000000000	        0.0000000000	        0.0000000000	        0.0000000000	        0.0000000000	        0.0000000000	
        0.6748351269	       -0.0264351859	        0.0148566013	       -0.0020070323	        0.0000000000	        0.0000000000	        0.0000000000	      -53.3079885322	      680.1729938210	       17.5534136612	        0.8956881497	        0.0000000000	       -0.0439224038	        0.0000000000	        0.0000000000	        0.0000000000	        0.0000000000	        0.0000000000	        0.0000000000	
        0.6857195644	       -0.0275764206	        0.0146281127	       -0.0022275037	        0.0000000000	        0.0000000000	        0.0000000000	      -43.8872291584	      649.6175237084	       18.3669770575	        0.8992337621	        0.0000000000	       -0.0439181699	        0.0000000000	        0.0000000000	        0.0000000000	        0.0000000000	        0.0000000000	        0.0000000000	
        0.6966040020	       -0.0170357206	        0.0085976389	       -0.0014506595	        0.0000000000	        0.0000000000	        0.0000000000	      -35.6655092513	      625.9061543731	       19.3839253930	        0.9034849298	        0.0000000000	       -0.0439119894	        0.0000000000	        0.0000000000	        0.0000000000	        0.0000000000	        0.0000000000	        0.0000000000	
        0.7074884395	       -0.0121583802	        0.0058759604	       -0.0010854929	        0.0000000000	        0.0000000000	        0.0000000000	      -29.9285932209	      608.4085276875	       20.3614304035	        0.9084341069	        0.0000000000	       -0.0438662140	        0.0000000000	        0.0000000000	        0.0000000000	        0.0000000000	        0.0000000000	        0.0000000000	
        0.7183728770	       -0.0111327351	        0.0051789562	       -0.0010329056	        0.0000000000	        0.0000000000	        0.0000000000	      -25.8917244358	      596.2282740850	       20.7542393692	        0.9136513234	        0.0000000000	       -0.0437858953	        0.0000000000	        0.0000000000	        0.0000000000	        0.0000000000	        0.0000000000	        0.0000000000	
        0.7292573145	       -0.0132498658	        0.0059573678	       -0.0012632497	        0.0000000000	        0.0000000000	        0.0000000000	      -22.2053334020	      588.2961612845	       20.9506131449	        0.9191857804	        0.0000000000	       -0.0436620977	        0.0000000000	        0.0000000000	        0.0000000000	        0.0000000000	        0.0000000000	        0.0000000000	
        0.7401417521	       -0.0197697741	        0.0086220615	       -0.0019148722	        0.0000000000	        0.0000000000	        0.0000000000	      -20.2985941759	      583.6026595238	       20.8361770436	        0.9248869031	        0.0000000000	       -0.0434910372	        0.0000000000	        0.0000000000	        0.0000000000	        0.0000000000	        0.0000000000	        0.0000000000	
        0.7510261896	       -0.0348050786	        0.0147755863	       -0.0033984467	        0.0000000000	        0.0000000000	        0.0000000000	      -19.1399535431	      581.2984609716	       20.2557471595	        0.9304551195	        0.0000000000	       -0.0432994517	        0.0000000000	        0.0000000000	        0.0000000000	        0.0000000000	        0.0000000000	        0.0000000000	
        0.7619106271	       -0.0672086206	        0.0278679474	       -0.0065490508	        0.0000000000	        0.0000000000	        0.0000000000	      -17.4996336182	      580.4244071048	       19.5671087906	        0.9360222315	        0.0000000000	       -0.0430822664	        0.0000000000	        0.0000000000	        0.0000000000	        0.0000000000	        0.0000000000	        0.0000000000	
        0.7727950647	       -0.1324382171	        0.0538186934	       -0.0127700700	        0.0000000000	        0.0000000000	        0.0000000000	      -15.8334777222	      579.6962286973	       18.8935465652	        0.9415109084	        0.0000000000	       -0.0428404041	        0.0000000000	        0.0000000000	        0.0000000000	        0.0000000000	        0.0000000000	        0.0000000000	
        0.7836795022	       -0.2505276563	        0.1001102486	       -0.0238060686	        0.0000000000	        0.0000000000	        0.0000000000	      -13.9149302010	      578.1856888992	       18.6027167968	        0.9468502846	        0.0000000000	       -0.0425848674	        0.0000000000	        0.0000000000	        0.0000000000	        0.0000000000	        0.0000000000	        0.0000000000	
        0.7945639397	       -0.4343004975	        0.1712255725	       -0.0405249249	        0.0000000000	        0.0000000000	        0.0000000000	      -11.6050995106	      575.3562313256	       18.4254380676	        0.9520524679	        0.0000000000	       -0.0423226586	        0.0000000000	        0.0000000000	        0.0000000000	        0.0000000000	        0.0000000000	        0.0000000000	
        0.8054483773	       -0.6723868673	        0.2623787681	       -0.0614202084	        0.0000000000	        0.0000000000	        0.0000000000	       -9.0912998180	      571.1508500323	       18.2083067717	        0.9571481662	        0.0000000000	       -0.0420528646	        0.0000000000	        0.0000000000	        0.0000000000	        0.0000000000	        0.0000000000	        0.0000000000	
